<svg width="226" height="38" viewBox="0 0 226 38" fill="none" xmlns="http://www.w3.org/2000/svg">
<g clip-path="url(#clip0_244_209)">
<path d="M92.6965 7.23752H85.725L80.386 22.9426L75.0912 7.23752H67.9873L77.2974 30.8608H83.3864L92.6965 7.23752ZM116.727 30.6858V7.23752H110.02V20.3178C110.02 21.8927 109.638 23.0885 108.873 23.9051C108.137 24.6925 107.122 25.0862 105.828 25.0862C104.534 25.0862 103.534 24.6925 102.828 23.9051C102.122 23.0885 101.769 21.8927 101.769 20.3178V7.23752H95.062V22.4177C95.062 25.13 95.7533 27.259 97.1358 28.8047C98.5478 30.3504 100.533 31.1233 103.093 31.1233C103.946 31.1233 104.71 31.0212 105.387 30.8171C106.064 30.6129 106.681 30.3358 107.24 29.9859C107.799 29.6359 108.299 29.2422 108.74 28.8047C109.211 28.3381 109.638 27.8569 110.02 27.3611V30.6858H116.727ZM141.174 30.6858V25.305H128.907L141.174 11.9184V7.23752H121.009V12.6184H132.834L120.612 26.0049V30.6858H141.174ZM169.389 19.0054V18.9179C169.389 17.2264 169.066 15.6515 168.419 14.1933C167.772 12.7059 166.874 11.4226 165.727 10.3435C164.609 9.23529 163.271 8.37493 161.712 7.76248C160.153 7.12086 158.461 6.80005 156.638 6.80005C154.785 6.80005 153.078 7.12086 151.519 7.76248C149.96 8.4041 148.607 9.27904 147.46 10.3873C146.313 11.4955 145.416 12.7934 144.768 14.2808C144.121 15.739 143.798 17.3139 143.798 19.0054V19.0929C143.798 20.7845 144.121 22.3739 144.768 23.8613C145.416 25.3195 146.298 26.6028 147.416 27.711C148.563 28.7901 149.916 29.6505 151.475 30.2921C153.034 30.9046 154.726 31.2108 156.549 31.2108C158.403 31.2108 160.109 30.89 161.668 30.2484C163.227 29.6067 164.58 28.7318 165.727 27.6235C166.874 26.5153 167.772 25.2321 168.419 23.7738C169.066 22.2864 169.389 20.697 169.389 19.0054ZM162.771 19.0929C162.771 19.9678 162.624 20.799 162.33 21.5865C162.065 22.3448 161.668 23.0155 161.138 23.5988C160.609 24.1821 159.962 24.6488 159.197 24.9987C158.461 25.3195 157.608 25.4799 156.638 25.4799C155.696 25.4799 154.843 25.305 154.079 24.955C153.343 24.605 152.696 24.1384 152.137 23.5551C151.578 22.9426 151.152 22.2573 150.858 21.499C150.563 20.7115 150.416 19.8804 150.416 19.0054V18.9179C150.416 18.043 150.549 17.2264 150.813 16.4681C151.108 15.6807 151.519 14.9953 152.049 14.412C152.578 13.8287 153.211 13.3767 153.946 13.0558C154.711 12.7059 155.579 12.5309 156.549 12.5309C157.461 12.5309 158.3 12.7059 159.064 13.0558C159.829 13.4058 160.491 13.887 161.05 14.4995C161.609 15.0828 162.035 15.7682 162.33 16.5556C162.624 17.3139 162.771 18.1305 162.771 19.0054V19.0929ZM197.367 19.0054V18.9179C197.367 17.2264 197.043 15.6515 196.396 14.1933C195.749 12.7059 194.852 11.4226 193.705 10.3435C192.587 9.23529 191.248 8.37493 189.689 7.76248C188.13 7.12086 186.439 6.80005 184.615 6.80005C182.762 6.80005 181.056 7.12086 179.497 7.76248C177.938 8.4041 176.585 9.27904 175.437 10.3873C174.29 11.4955 173.393 12.7934 172.746 14.2808C172.099 15.739 171.775 17.3139 171.775 19.0054V19.0929C171.775 20.7845 172.099 22.3739 172.746 23.8613C173.393 25.3195 174.275 26.6028 175.393 27.711C176.541 28.7901 177.894 29.6505 179.453 30.2921C181.012 30.9046 182.703 31.2108 184.527 31.2108C186.38 31.2108 188.086 30.89 189.645 30.2484C191.204 29.6067 192.557 28.7318 193.705 27.6235C194.852 26.5153 195.749 25.2321 196.396 23.7738C197.043 22.2864 197.367 20.697 197.367 19.0054ZM190.748 19.0929C190.748 19.9678 190.601 20.799 190.307 21.5865C190.042 22.3448 189.645 23.0155 189.116 23.5988C188.586 24.1821 187.939 24.6488 187.174 24.9987C186.439 25.3195 185.586 25.4799 184.615 25.4799C183.674 25.4799 182.821 25.305 182.056 24.955C181.321 24.605 180.673 24.1384 180.115 23.5551C179.556 22.9426 179.129 22.2573 178.835 21.499C178.541 20.7115 178.394 19.8804 178.394 19.0054V18.9179C178.394 18.043 178.526 17.2264 178.791 16.4681C179.085 15.6807 179.497 14.9953 180.026 14.412C180.556 13.8287 181.188 13.3767 181.924 13.0558C182.688 12.7059 183.556 12.5309 184.527 12.5309C185.439 12.5309 186.277 12.7059 187.042 13.0558C187.807 13.4058 188.469 13.887 189.027 14.4995C189.586 15.0828 190.013 15.7682 190.307 16.5556C190.601 17.3139 190.748 18.1305 190.748 19.0054V19.0929ZM222.564 30.6858V15.5057C222.564 12.7934 221.858 10.6644 220.446 9.11863C219.063 7.57291 217.093 6.80005 214.533 6.80005C213.68 6.80005 212.915 6.90212 212.239 7.10628C211.562 7.31043 210.945 7.58749 210.386 7.93747C209.827 8.28744 209.312 8.69575 208.841 9.16238C208.4 9.59985 207.988 10.0665 207.606 10.5623V7.23752H200.899V30.6858H207.606V17.6055C207.606 16.0306 207.974 14.8495 208.709 14.062C209.474 13.2454 210.503 12.8371 211.798 12.8371C213.092 12.8371 214.092 13.2454 214.798 14.062C215.504 14.8495 215.857 16.0306 215.857 17.6055V30.6858H222.564Z" fill="white"/>
<path d="M39.8668 8.31789L48.5371 16.907L57.2002 8.31069L48.5298 -0.278396L39.8668 8.31789Z" fill="white"/>
<path d="M19.9336 8.32641L28.8438 17.1531L37.5068 8.55679L28.5967 -0.269879L19.9336 8.32641Z" fill="white"/>
<path d="M0.000415583 8.33473L18.6416 26.8013L27.3047 18.205L8.66347 -0.26156L0.000415583 8.33473Z" fill="white"/>
<path d="M19.942 28.0896L28.6123 36.6787L47.4918 17.9447L38.8215 9.3556L19.942 28.0896Z" fill="#30D59B"/>
</g>
<defs>
<clipPath id="clip0_244_209">
<rect width="226" height="38" fill="white"/>
</clipPath>
</defs>
</svg>
