<svg width="270" height="145" viewBox="0 0 270 145" fill="none" xmlns="http://www.w3.org/2000/svg">
<path d="M1.734 137V108.083H0.765L1.479 101.3H10.812C13.43 101.3 15.3 101.878 16.422 103.034C17.578 104.156 18.156 106.009 18.156 108.593V120.221C18.156 122.839 17.595 124.709 16.473 125.831L19.635 137H12.699L10.047 127.514H8.67V137H1.734ZM10.965 108.083H8.67V120.731H10.965C11.135 120.731 11.22 120.646 11.22 120.476V108.338C11.22 108.168 11.135 108.083 10.965 108.083ZM20.865 137V108.083H19.896L20.61 101.3H35.196L34.788 108.083H27.801V115.733H34.074L33.666 122.516H27.801V130.217H35.196L34.788 137H20.865ZM36.979 137L41.212 108.083H40.141L40.855 101.3H52.738L57.991 137H51.106L50.341 131.9H44.629L43.864 137H36.979ZM45.598 125.117H49.372L47.485 112.367L45.598 125.117ZM61.0076 137.051V108.134H60.0386L60.7526 101.351H67.9436V130.217H77.6846L77.2766 137H67.9436V137.051H61.0076ZM80.8685 137V108.083H76.1255V101.3H92.4965V108.083H87.8045V137H80.8685ZM111.236 129.911C111.236 132.495 110.658 134.365 109.502 135.521C108.38 136.643 106.51 137.204 103.892 137.204H101.648C99.0302 137.204 97.1432 136.643 95.9872 135.521C94.8652 134.365 94.3042 132.495 94.3042 129.911V108.389C94.3042 105.771 94.8652 103.901 95.9872 102.779C97.1432 101.657 99.0302 101.096 101.648 101.096H103.892C106.51 101.096 108.38 101.657 109.502 102.779C110.658 103.901 111.236 105.771 111.236 108.389V129.911ZM101.495 107.879C101.325 107.879 101.24 107.964 101.24 108.134V130.166C101.24 130.336 101.325 130.421 101.495 130.421H104.045C104.215 130.421 104.3 130.336 104.3 130.166V108.134C104.3 107.964 104.215 107.879 104.045 107.879H101.495ZM114.249 137V108.083H113.28L113.994 101.3H121.185V110.633L125.571 101.3H132.201L125.214 116.192L133.119 137H126.489L121.185 123.026V137H114.249ZM134.868 137V108.083H133.899L134.613 101.3H149.199L148.791 108.083H141.804V115.733H148.077L147.669 122.516H141.804V130.217H149.199L148.791 137H134.868ZM152.2 137V108.083H151.231L151.945 101.3H159.136L164.95 120.68V101.3H171.886V137H164.95L159.136 117.62V137H152.2Z" fill="white"/>
<path d="M174.662 137V108.083H173.693L174.407 101.3H188.993L188.585 108.083H181.598V115.733H187.871L187.463 122.516H181.598V137H174.662ZM208.932 129.911C208.932 132.495 208.354 134.365 207.198 135.521C206.076 136.643 204.206 137.204 201.588 137.204H198.834C196.216 137.204 194.329 136.643 193.173 135.521C192.051 134.365 191.49 132.495 191.49 129.911V108.083H190.521L191.235 101.3H198.426V130.166C198.426 130.336 198.511 130.421 198.681 130.421H201.741C201.911 130.421 201.996 130.336 201.996 130.166V101.3H208.932V129.911ZM211.667 137V108.083H210.698L211.412 101.3H218.603L224.417 120.68V101.3H231.353V137H224.417L218.603 117.62V137H211.667ZM251.31 129.707C251.31 132.291 250.732 134.161 249.576 135.317C248.454 136.439 246.584 137 243.966 137H234.378V108.083H233.409L234.123 101.3H243.966C246.584 101.3 248.454 101.861 249.576 102.983C250.732 104.105 251.31 105.975 251.31 108.593V129.707ZM244.119 130.217C244.289 130.217 244.374 130.132 244.374 129.962V108.338C244.374 108.168 244.289 108.083 244.119 108.083H241.314V130.217H244.119ZM260.012 125.78V130.37C260.012 130.54 260.097 130.625 260.267 130.625H261.746C261.916 130.625 262.001 130.54 262.001 130.37L262.052 123.587L256.289 121.088C254.997 120.51 254.13 119.915 253.688 119.303C253.28 118.691 253.076 117.756 253.076 116.498V108.185C253.076 105.567 253.637 103.697 254.759 102.575C255.881 101.453 257.7 100.892 260.216 100.892H262.358C264.738 100.994 266.438 101.623 267.458 102.779C268.478 103.901 268.988 105.703 268.988 108.185V114.56L262.052 113.795V107.93C262.052 107.76 261.967 107.675 261.797 107.675H260.267C260.097 107.675 260.012 107.76 260.012 107.93V115.427L265.775 117.926C267.067 118.47 267.917 119.065 268.325 119.711C268.767 120.323 268.988 121.258 268.988 122.516V130.115C268.988 132.597 268.478 134.416 267.458 135.572C266.438 136.694 264.738 137.306 262.358 137.408H260.318C257.734 137.408 255.881 136.847 254.759 135.725C253.637 134.569 253.076 132.699 253.076 130.115V125.78H260.012Z" fill="#E0D39C"/>
<path d="M81 63.5V88H97V69L115 58L104.5 48L81 63.5Z" fill="#E0D39C"/>
<path d="M105.5 32.5L82.5 47V32.5L105.5 16L175.5 64.5V87H159.5V70.5L105.5 32.5Z" fill="#E0D39C"/>
<path d="M175.5 50L116.5 9.5L130 0L175.5 32V50Z" fill="#E0D39C"/>
<circle cx="186" cy="39" r="4" fill="#E0D39C"/>
<rect x="122" y="68" width="11" height="19" fill="#E0D39C"/>
</svg>
